<?xml version="1.0" standalone="no"?><!DOCTYPE svg PUBLIC "-//W3C//DTD SVG 1.1//EN" "http://www.w3.org/Graphics/SVG/1.1/DTD/svg11.dtd"><svg t="1733041466359" class="icon" viewBox="0 0 1083 1024" version="1.1" xmlns="http://www.w3.org/2000/svg" p-id="5138" xmlns:xlink="http://www.w3.org/1999/xlink" width="211.5234375" height="200"><path d="M436.224 939.52H141.824c-9.728 0-17.92-7.68-17.92-17.408V101.888c0-9.728 8.192-17.408 17.92-17.408h675.328c9.728 0 17.92 7.68 17.92 17.408v178.176c0 18.432 14.848 33.28 33.28 33.28s33.28-14.848 33.28-33.28V101.888c0-46.08-37.888-83.968-84.48-83.968H141.824c-46.592 0-84.48 37.376-84.48 83.968v820.736c0 46.08 37.888 83.968 84.48 83.968h294.4c18.432 0 33.28-14.848 33.28-33.28s-14.848-33.792-33.28-33.792z" p-id="5139"></path><path d="M461.824 489.472c0-18.432-14.848-33.28-33.28-33.28h-215.04c-18.432 0-33.28 14.848-33.28 33.28s14.848 33.28 33.28 33.28h215.04c18.432 0 33.28-14.848 33.28-33.28zM768.512 294.912c0-18.432-14.848-33.28-33.28-33.28H213.504c-18.432 0-33.28 14.848-33.28 33.28s14.848 33.28 33.28 33.28h521.728c18.432 0 33.28-14.848 33.28-33.28zM213.504 671.232c-18.432 0-33.28 14.848-33.28 33.28s14.848 33.28 33.28 33.28h168.96c18.432 0 33.28-14.848 33.28-33.28s-14.848-33.28-33.28-33.28h-168.96zM1026.048 966.144l-25.6-155.648c-2.56-15.872-16.384-27.648-32.768-27.648h-120.32c2.56-4.608 4.096-10.24 4.096-15.872v-58.88c83.968-14.848 147.456-85.504 147.456-169.984 0-95.232-80.896-173.056-180.736-173.056s-180.736 77.824-180.736 173.056c0 84.48 63.488 155.136 147.456 169.984v58.88c0 5.632 1.536 11.264 4.096 15.872h-120.32c-16.384 0-30.208 11.776-32.768 27.648l-25.6 155.648c-1.536 9.728 1.024 19.456 7.68 27.136 6.144 7.68 15.36 11.776 25.6 11.776H993.28c9.728 0 18.944-4.096 25.6-11.776 6.144-7.68 8.704-17.408 7.168-27.136z m-322.048-428.032c0-58.88 51.2-106.496 114.176-106.496s114.176 47.616 114.176 106.496-51.2 106.496-114.176 106.496-114.176-48.128-114.176-106.496z m-22.016 400.384l14.848-89.088h243.2l14.848 89.088h-272.896z" p-id="5140"></path></svg>