<?xml version="1.0" standalone="no"?><!DOCTYPE svg PUBLIC "-//W3C//DTD SVG 1.1//EN" "http://www.w3.org/Graphics/SVG/1.1/DTD/svg11.dtd"><svg t="1733051191439" class="icon" viewBox="0 0 1024 1024" version="1.1" xmlns="http://www.w3.org/2000/svg" p-id="10559" xmlns:xlink="http://www.w3.org/1999/xlink" width="200" height="200"><path d="M858.21 200.13H166.66c-27.66 0-51.95 9.96-71.69 29.39-19.84 19.51-30.03 43.6-30.03 71.05v440.42c0 27.45 10.2 51.51 30.03 71.02a99.376 99.376 0 0 0 71.69 29.39h691.55c27.68 0 51.95-9.96 71.69-29.39 19.84-19.51 30.03-43.57 30.03-71.02V300.56c0-27.45-10.2-51.53-30.03-71.05a99.33 99.33 0 0 0-71.67-29.39h-0.02z m-691.55 41.52h691.55c16.77 0 30.59 5.67 42.58 17.48 11.93 11.72 17.62 25.14 17.62 41.43v440.42c0 16.26-5.7 29.66-17.62 41.41-11.99 11.81-25.84 17.48-42.56 17.48H166.66a57.922 57.922 0 0 1-42.6-17.48c-11.93-11.74-17.62-25.14-17.62-41.41V300.56c0-16.26 5.7-29.71 17.62-41.43a57.922 57.922 0 0 1 42.6-17.48z" fill="#515151" p-id="10560"></path><path d="M280.37 446h-76c-6.6 0-12-5.4-12-12v-76c0-6.6 5.4-12 12-12h76c6.6 0 12 5.4 12 12v76c0 6.6-5.4 12-12 12zM460.54 426.06h-76c-6.6 0-12-5.4-12-12v-36c0-6.6 5.4-12 12-12h76c6.6 0 12 5.4 12 12v36c0 6.6-5.4 12-12 12zM640.71 426h-76c-6.6 0-12-5.4-12-12v-36c0-6.6 5.4-12 12-12h76c6.6 0 12 5.4 12 12v36c0 6.6-5.4 12-12 12zM820.88 426.06h-76c-6.6 0-12-5.4-12-12v-36c0-6.6 5.4-12 12-12h76c6.6 0 12 5.4 12 12v36c0 6.6-5.4 12-12 12zM281.37 546.91h-76c-6.6 0-12-5.4-12-12v-36c0-6.6 5.4-12 12-12h76c6.6 0 12 5.4 12 12v36c0 6.6-5.4 12-12 12zM461.2 546.97h-76c-6.6 0-12-5.4-12-12v-36c0-6.6 5.4-12 12-12h76c6.6 0 12 5.4 12 12v36c0 6.6-5.4 12-12 12zM654.37 681.96h-283.5c-6.6 0-12-5.4-12-12v-36c0-6.6 5.4-12 12-12h283.5c6.6 0 12 5.4 12 12v36c0 6.6-5.4 12-12 12zM641.04 546.91h-76c-6.6 0-12-5.4-12-12v-36c0-6.6 5.4-12 12-12h76c6.6 0 12 5.4 12 12v36c0 6.6-5.4 12-12 12zM820.88 546.97h-76c-6.6 0-12-5.4-12-12v-36c0-6.6 5.4-12 12-12h76c6.6 0 12 5.4 12 12v36c0 6.6-5.4 12-12 12zM279.58 681.89h-76c-6.6 0-12-5.4-12-12v-36c0-6.6 5.4-12 12-12h76c6.6 0 12 5.4 12 12v36c0 6.6-5.4 12-12 12zM820.88 681.96h-76c-6.6 0-12-5.4-12-12v-36c0-6.6 5.4-12 12-12h76c6.6 0 12 5.4 12 12v36c0 6.6-5.4 12-12 12z" fill="#515151" p-id="10561"></path></svg>