<?xml version="1.0" standalone="no"?><!DOCTYPE svg PUBLIC "-//W3C//DTD SVG 1.1//EN" "http://www.w3.org/Graphics/SVG/1.1/DTD/svg11.dtd"><svg t="1733051384545" class="icon" viewBox="0 0 1024 1024" version="1.1" xmlns="http://www.w3.org/2000/svg" p-id="13526" xmlns:xlink="http://www.w3.org/1999/xlink" width="200" height="200"><path d="M938.666667 1002.666667H85.333333a64 64 0 0 1-64-64V85.333333a64 64 0 0 1 64-64h853.333334a64 64 0 0 1 64 64v853.333334a64 64 0 0 1-64 64zM85.333333 64a21.333333 21.333333 0 0 0-21.333333 21.333333v853.333334a21.333333 21.333333 0 0 0 21.333333 21.333333h853.333334a21.333333 21.333333 0 0 0 21.333333-21.333333V85.333333a21.333333 21.333333 0 0 0-21.333333-21.333333z" p-id="13527"></path><path d="M128 160A32 32 0 1 1 160 128 32 32 0 0 1 128 160z m0-42.666667a10.666667 10.666667 0 1 0 10.666667 10.666667 10.666667 10.666667 0 0 0-10.666667-10.666667zM213.333333 160A32 32 0 1 1 245.333333 128 32 32 0 0 1 213.333333 160z m0-42.666667a10.666667 10.666667 0 1 0 10.666667 10.666667 10.666667 10.666667 0 0 0-10.666667-10.666667zM298.666667 160A32 32 0 1 1 330.666667 128 32 32 0 0 1 298.666667 160z m0-42.666667a10.666667 10.666667 0 1 0 10.666666 10.666667 10.666667 10.666667 0 0 0-10.666666-10.666667zM42.666667 192h938.666666v42.666667H42.666667zM874.666667 341.333333h-85.333334a21.333333 21.333333 0 0 1 0-42.666666h85.333334a21.333333 21.333333 0 0 1 0 42.666666zM874.666667 405.333333h-85.333334a21.333333 21.333333 0 0 1 0-42.666666h85.333334a21.333333 21.333333 0 0 1 0 42.666666zM512 533.333333H170.666667a21.333333 21.333333 0 0 1 0-42.666666h341.333333a21.333333 21.333333 0 0 1 0 42.666666zM853.333333 618.666667H170.666667a21.333333 21.333333 0 0 1 0-42.666667h682.666666a21.333333 21.333333 0 0 1 0 42.666667zM853.333333 704H170.666667a21.333333 21.333333 0 0 1 0-42.666667h682.666666a21.333333 21.333333 0 0 1 0 42.666667zM853.333333 789.333333H170.666667a21.333333 21.333333 0 0 1 0-42.666666h682.666666a21.333333 21.333333 0 0 1 0 42.666666zM640 874.666667H170.666667a21.333333 21.333333 0 0 1 0-42.666667h469.333333a21.333333 21.333333 0 0 1 0 42.666667z" p-id="13528"></path></svg>